<svg xmlns="http://www.w3.org/2000/svg" xmlns:xlink="http://www.w3.org/1999/xlink" viewBox="0 0 5000 5000"><defs><style>.cls-1{fill:url(#linear-gradient);}.cls-2{fill:url(#linear-gradient-2);}.cls-3{fill:#57647f;}.cls-4{fill:#336;}.cls-5{fill:#ffc98f;}</style><linearGradient id="linear-gradient" x1="2609.05" y1="961.4" x2="3511.54" y2="726.85" gradientUnits="userSpaceOnUse"><stop offset="0" stop-color="#fff"/><stop offset="0.41" stop-color="#babad1"/><stop offset="0.81" stop-color="#7d7da9"/><stop offset="1" stop-color="#669"/></linearGradient><linearGradient id="linear-gradient-2" x1="3529.81" y1="2865.97" x2="4182.34" y2="4097.49" gradientUnits="userSpaceOnUse"><stop offset="0.1" stop-color="#fff"/><stop offset="0.25" stop-color="#f6f6fa"/><stop offset="0.5" stop-color="#dde"/><stop offset="0.81" stop-color="#b5b5da"/><stop offset="1" stop-color="#99c"/></linearGradient></defs><g id="A2"><path class="cls-1" d="M2375.66,1431l848-1261.32c25.75-38.3,85.55-19.31,84.49,26.82L3279.74,1431.3"/><path class="cls-2" d="M4056.15,2657.36l-870.71,982.09,511.11,466.64a107.84,107.84,0,0,0,67.54,29.66l295.11,19.14a107.88,107.88,0,0,0,90.15-38.94l422.93-511.8a107.92,107.92,0,0,0,23.3-86.18l-12.33-75.21a107.86,107.86,0,0,0-19.27-46.07Z"/><path class="cls-3" d="M3185.44,3639.45l-739.32-491.71-295.26,793.48-80.14,983.15c-5.29,64.86-85.14,92.52-129.42,44.82L559.82,3480.9A510.92,510.92,0,0,1,502.6,2860l525.55-830.13a899.72,899.72,0,0,1,236.35-250.2l965.71-691.45L2676.47,47.56c20.76-48.42,91.5-41.45,102.4,10.1l210,992.46,602.56,789.24,464.71,818Z"/><polyline class="cls-4" points="3185 3639 2362 3373 1905 2782"/><path class="cls-5" d="M2829.68,1977.92l-84.77-86.85,191-62.75,251.81,27.94,76.5,173.77a56,56,0,0,0-13.48,2.62l-168,54.51Z"/><path class="cls-4" d="M2941.84,1885.83l207.25,23,37.52,85.22-101.09,32.8-223.2-96.36-13.68-14,93.2-30.62m-11.94-115-353.42,116.13L2699.11,1925,2797,2025.37l282.82,122.1,188.27-61.08,147.67,163.45-53.12-136.32L3226.27,1803.7l-296.37-32.89Z"/></g></svg>